<svg xmlns="http://www.w3.org/2000/svg" width="371.992" height="366.328" viewBox="0 0 371.992 366.328">
  <g id="Group_27" data-name="Group 27" transform="translate(-759.008 -287.053)">
    <g id="Group_2" data-name="Group 2" transform="translate(-10 32.554)">
      <g id="short-male-hair-shape" transform="translate(848.72 252.193)">
        <path id="Path_10" data-name="Path 10" d="M20.574,205.22C11.3,198.779,6.748,152.554,6.748,152.554S-1.023,102.733.114,92.5s17.8-24.636,23.3-23.677C12.238,52.735,34.964,46.673,34.964,46.673s21.589-19.509,71.6-30.118c4.732-.379-6.828-4.926-16.733-6.232,3.472-6.843,25.262,4.709,25.262,4.709S106.374,5.752,96.33,2.914C99.229-.04,112.46,8.435,127.4,14.08c27.211,10.3,51.638,9.318,59.78,20.684,3.982,4.547.456,12.844,6.132,13.609s38.639,9.843,49.248,42.235C230.241,76.6,221.527,77.17,221.527,77.17s19.138,21.782,18.759,37.7c-.147,6.109-6.194,10.872-11,19.509-7.678,13.818-15.627,32.044-17.035,39.962-2.289,12.882-4.933,34.1-10.431,34.858s-4.539-82.962-3.781-88.274c1.894-7.756-33.343-16.849-33.343-16.849s25.757,16.478,19.5,32.2c-6.828-18.195-16.285-18.38-16.285-18.38s19.888,38.26,8.142,45.645c-6.828-42.993-24.241-51.908-38.26-58.334-14.019-6.449-44.516-3.8-62.324,2.838s-36.18,1.33-36.18,1.33l3.039,16.292L33.8,118.832l-1.7,10.423s5.482,9.836,4.732,15.535c-5.49-6.82-7.957-6.82-7.957-6.82s4.74,7.771,2.652,11.931c-2.652-5.49-7.2-3.6-7.2-3.6S26.258,204.656,20.574,205.22Z" transform="translate(0 0)"/>
      </g>
      <path id="Path_6" data-name="Path 6" d="M273.476,249.981,118.8,168.07-.806,104.781Z" transform="translate(769.814 370.846)" fill="#ba3535" opacity="0.998"/>
      <text id="NerdDeals" transform="translate(799 457.446)" fill="#ba3535" font-size="80" font-family="Anton-Regular, Anton"><tspan x="0" y="91" fill="#000">Nerd</tspan><tspan y="91" fill="#ba3535">Deals</tspan></text>
      <g id="reading-eyeglasses" transform="translate(876.776 406.964)">
        <g id="Group_1" data-name="Group 1" transform="translate(0 0)">
          <path id="Path_1" data-name="Path 1" d="M.068,117.173a5.868,5.868,0,0,0,1.785,4.812,5.239,5.239,0,0,1,.667.826,6.921,6.921,0,0,1,.821,2.412c3.4,20.607,4.165,23.416,12.791,27.96,4.129,2.177,12.619,3.637,21.125,3.637,6.632,0,16.212-.873,24.178-5.028,11.606-6.056,15.931-26.961,16.134-28.013.011-.106.354-2.6,5.657-2.6h.005l.325,0c5.03,0,5.377,2.5,5.413,2.766.178.889,4.5,21.791,16.11,27.85,7.967,4.158,17.547,5.028,24.179,5.028,8.505,0,16.994-1.463,21.123-3.637,8.627-4.543,9.392-7.355,12.79-27.963a6.947,6.947,0,0,1,.822-2.412,5.141,5.141,0,0,1,.666-.826,5.87,5.87,0,0,0,1.786-4.812c-.012-.471.009-1.308.028-2.226.034-1.4.065-2.98.017-3.831-.244-4.168-3.932-5.865-5.788-6.167-11.867-2.437-26.114-3.143-41.155-2.063l-.785.056c-9.175.649-14.228,1.006-20.25,3.7-1.4.627-2.835,1.335-4.107,1.988a37.222,37.222,0,0,1-7.292,2.817c-.707.158-1.424.312-2.059.44a11.689,11.689,0,0,1-3.6,0c-.635-.13-1.352-.282-2.061-.44a37.348,37.348,0,0,1-7.289-2.817c-1.271-.653-2.708-1.362-4.107-1.988-6.022-2.7-11.074-3.054-20.249-3.7l-.787-.056c-15.045-1.077-29.313-.368-41.1,2.055-1.912.313-5.6,2.011-5.841,6.179-.053.85-.018,2.429.014,3.83C.059,115.868.079,116.707.068,117.173Zm162.961-5.12v3.084l-3.841-1.541Zm-66.6,4.424c.581-1.443,4.24-6.249,26.936-7.57,3.979-.231,7.355-.344,10.32-.344,13.383,0,17.642,2.406,20.176,6.286,1.517,2.321,2.548,7.177,2.559,10.256.028,6.722-1.323,18.671-10.645,23.189-4.271,2.069-10.676,3.3-17.13,3.3-12.388,0-22.291-4.212-26.483-11.263C93.345,125.52,96.324,116.724,96.432,116.477Zm-83.789-1.631c2.537-3.882,6.8-6.286,20.177-6.286,2.966,0,6.341.113,10.321.344,22.692,1.323,26.354,6.13,27,7.74.035.079,3.015,8.878-5.8,23.691-4.2,7.051-14.1,11.263-26.482,11.263-6.456,0-12.862-1.236-17.134-3.3-9.322-4.518-10.672-16.467-10.645-23.189C10.1,122.023,11.128,117.168,12.643,114.846Zm-9.167-2.794,3.839,1.542-3.839,1.541Z" transform="translate(-0.002 -102.391)"/>
        </g>
      </g>
    </g>
  </g>
</svg>
